<svg width="64" height="64" viewBox="0 0 100 100" fill="none" xmlns="http://www.w3.org/2000/svg">
<path fill-rule="evenodd" clip-rule="evenodd" d="M54.0403 64.6385C54.0138 65.0929 54 65.5469 54 66C54 74.2843 60.7157 81 69 81C77.2843 81 84 74.2843 84 66C84 51 69 35 69 35C69 35 66.9392 37.1983 64.3452 40.729C65.3604 43.7622 66 46.9024 66 50C66 50.169 65.9962 50.3362 65.9886 50.5014C65.7192 56.4908 60.6812 63.0486 54.0403 64.6385Z" fill="#C6D0EB"/>
<path fill-rule="evenodd" clip-rule="evenodd" d="M30 35C30 35 45 51 45 66C45 74.2843 38.2843 81 30 81C21.7157 81 15 74.2843 15 66C15 51 30 35 30 35Z" fill="black"/>
<path fill-rule="evenodd" clip-rule="evenodd" d="M65 49C65 34 50 18 50 18C50 18 39.6393 29.0515 36.1393 41.3956C40.0725 46.8668 44.9702 55.1481 45.8585 63.421C47.174 63.798 48.5634 64 50 64C58.2843 64 65 57.2843 65 49Z" fill="#212C4F"/>
</svg>
