<svg width="64" height="64" viewBox="0 0 100 100" fill="none" xmlns="http://www.w3.org/2000/svg">
<g clip-path="url(#clip0)">
<path d="M41.6016 78H54.1406L34.5312 21.6328H20.6641L1.09375 78H13.2031L17.5 64.3281H37.3047L41.6016 78ZM27.2656 32.4141H27.5391L34.7656 55.5H20.0391L27.2656 32.4141Z" fill="black"/>
<path d="M71.9121 72.3164C69.0117 72.3164 67.0781 70.8516 67.0781 68.5078C67.0781 66.2812 68.8945 64.8457 72.0879 64.6113L78.709 64.2012V66.4863C78.709 69.8848 75.6328 72.3164 71.9121 72.3164ZM69.0996 78.498C73.0254 78.498 76.9219 76.5352 78.6797 73.1953H78.8555V78H87.1172V56.4082C87.1172 50.0801 81.873 45.9199 73.8164 45.9199C65.4961 45.9199 60.3105 50.1094 59.9883 56.2031H67.8105C68.2207 53.8887 70.2422 52.3066 73.4355 52.3066C76.6582 52.3066 78.709 54.0059 78.709 56.9355V59.0156L70.7988 59.4844C62.9766 59.9531 58.582 63.2637 58.582 68.9766C58.582 74.6309 63.123 78.498 69.0996 78.498Z" fill="#606060"/>
</g>
<defs>
<clipPath id="clip0">
<rect width="64" height="64" fill="white"/>
</clipPath>
</defs>
</svg>
